<?xml version="1.0" encoding="UTF-8"?>
<svg id="Layer_2" data-name="Layer 2" xmlns="http://www.w3.org/2000/svg" viewBox="0 0 232.36 191.3">
  <defs>
    <style>
      .cls-1 {
        fill: #1d1d1b;
      }

      .cls-1, .cls-2 {
        stroke-width: 0px;
      }

      .cls-2 {
        fill: #fff;
      }
    </style>
  </defs>
  <g id="Layer_2-2" data-name="Layer 2">
    <g>
      <path class="cls-1" d="M120.43,60.71c-2.05-3.58-4.21-7.31-6.52-11.26-5.7-1.2-11.27-2.3-16.56-3.26,3.2,2.27,6.26,4.47,9.18,6.58,1.36.99,2.68,2.07,3.95,3.12l.04.03c.51.34,1.07.77,1.72,1.28l.77.6c1.54,1.19,3.1,2.36,4.66,3.53.96.72,1.93,1.44,2.89,2.17-.03-.86-.03-1.73,0-2.59-.05-.06-.09-.13-.13-.2ZM165.77,105.02c.24.09.48.19.71.3h0c-.23-.12-.47-.21-.71-.3ZM161.54,63.45v.09h.07s-.04-.06-.07-.09ZM73.65,127.27c-.33-.6-.73-1.05-1.2-1.36-.48-.31-.95-.52-1.43-.63-.48-.11-.87-.17-1.18-.17-1.14,0-2.07.3-2.77.9-.7.61-1.2,1.34-1.51,2.21-.31.87-.46,1.68-.46,2.44,0,1.26.26,2.21.78,2.85.51.65,1.12,1.09,1.8,1.32.69.24,1.28.36,1.79.36,1.2,0,2.14-.31,2.81-.92.67-.62,1.15-1.36,1.43-2.23.28-.87.42-1.66.42-2.39,0-.98-.16-1.77-.48-2.38ZM40.04,83.81l-4.07,7.54h6.11l-2.04-7.54ZM151.54,180.67c-1.29-3.98-1.29-7.58-1.29-10.76-.01-1.97-.14-3.8-.31-5.64-1.15-12.63-6.71-21.47-12.2-21.89-3.12-.25-4.08,2.25-4.11,6.01-.02,2.25-2.88,3.21-4.27,1.44-4.97-6.35-8.24-11.63-11.62-22.26-3.3-10.37-1.34-19.39,2.8-25.39.17-.25.27-.53.3-.83l.12-1.3c.22-4.74,2.59-8.91,4.89-11.88.11-.15.19-.3.25-.47-2.07-1.52-4.13-3.06-6.17-4.62-3.46-2.66-7.6-5.96-11.61-9.15-1.83-1.46-3.6-2.87-5.18-4.12-.2-.16-.38-.32-.54-.49h0c-.12-.09-.23-.18-.34-.28-5.62-4.8-11.75-9.94-18.73-15.7-.88-.72-1.77-1.45-2.65-2.19-.94-.77-1.87-1.55-2.8-2.31-.68-.56-1.36-1.1-1.92-1.66-.89.1-1.83.13-2.83.13-.44,0-.9,0-1.37-.01-3.19-.07-8.27-1.45-11.99-4.7C40.98,46.54,8.1,101.83,1.36,122.16c-2.2,6.63-1.73,12.48,1.39,17.38,6.01,9.44,19.94,13.04,24.35,13.56l.18.02c5.05.91,9.53,1.09,13.87,1.27,10.95.44,20.41.82,31.41,12.63,2.02,2.16,3.91,4.27,5.74,6.31,9.46,10.54,16.27,18.19,25.99,17.96,2.04-.05,4.39-.06,6.99-.08,11.76-.08,28.91-.19,44.03-3.15-2.03-2.59-3.22-5.28-3.77-7.39ZM71.69,84.08h2.86l.61-5h0s6.02-1.17,6.02-1.17l-.75,6.17h4.45l-.54,4.58h-4.46l-1.68,13.86h-5.88l1.68-13.86h-2.85l.54-4.58ZM56.45,84.16h5.29l-.17,4.08c.67-1.09,1.48-2.01,2.42-2.75s1.89-1.31,2.85-1.68c.97-.38,1.79-.57,2.46-.57l-1.01,5.88c-1.34-.17-2.55.06-3.61.67-1.06.62-1.92,1.43-2.56,2.44-.65,1.01-1.04,2.04-1.18,3.11l-.88,7.18h-5.84l2.23-18.36ZM41.83,70.39h.34l9.99,32.13h-7.05l-1.64-6.05h-10.26l-3.26,6.05h-6.01l17.89-32.13ZM33.81,131.58c-.14,1.17-.5,2.28-1.09,3.32-.59,1.03-1.38,1.94-2.38,2.71-.99.77-2.17,1.35-3.54,1.74-1.38.39-2.93.53-4.67.42-1.17-.08-2.35-.28-3.52-.59-1.18-.31-2.33-.73-3.45-1.28-1.12-.55-2.18-1.24-3.19-2.08l3.28-4.58c.64.56,1.37,1.07,2.18,1.54.81.46,1.64.83,2.48,1.11.84.28,1.62.45,2.35.5.73.03,1.47-.03,2.23-.19.75-.15,1.41-.46,1.97-.94.56-.48.9-1.16,1.01-2.06.08-.61-.06-1.19-.42-1.72-.37-.53-.86-1.02-1.47-1.47-.62-.45-1.32-.85-2.1-1.22-.9-.42-1.82-.89-2.77-1.43-.96-.53-1.83-1.16-2.63-1.89-.8-.72-1.41-1.62-1.83-2.68-.42-1.07-.53-2.33-.33-3.79.22-1.79.81-3.32,1.76-4.59.95-1.28,2.2-2.24,3.74-2.9,1.54-.66,3.28-.97,5.21-.95,1.65.09,3.07.3,4.26.65,1.19.35,2.23.78,3.13,1.29.9.5,1.72,1.04,2.48,1.63l-2.9,4.5c-1.09-.73-2.22-1.34-3.38-1.83s-2.28-.76-3.34-.82c-.67-.03-1.27.01-1.81.11-.53.09-1,.26-1.4.5-.41.24-.73.55-.97.95-.24.39-.38.85-.44,1.38-.08.73.12,1.39.61,2,.49.6,1.16,1.15,2.01,1.66.86.5,1.76.96,2.71,1.38,1.15.51,2.24,1.14,3.28,1.89,1.04.76,1.85,1.74,2.44,2.96.58,1.22.75,2.81.5,4.77ZM55.1,139.52h-5.88l1.39-11.55c.06-.81-.08-1.47-.42-1.96-.34-.49-.98-.73-1.93-.73-.9,0-1.72.29-2.46.88-.74.59-1.35,1.39-1.83,2.4-.47,1-.79,2.17-.96,3.48l-.93,7.48h-5.88l3.34-27.42,5.9-1.15-1.56,12.93c.75-1.03,1.73-1.87,2.93-2.53,1.3-.71,2.81-1.07,4.51-1.07s3.12.51,4.14,1.53c1.02,1.03,1.46,2.35,1.32,3.97l-1.68,13.74ZM79.8,131.85c-.2.94-.53,1.89-1.01,2.84-.48.95-1.12,1.82-1.93,2.62s-1.84,1.45-3.09,1.96c-1.25.5-2.74.75-4.47.75-1.09,0-2.23-.17-3.4-.52-1.18-.35-2.28-.89-3.3-1.62-1.02-.73-1.85-1.67-2.48-2.81-.63-1.15-.94-2.53-.94-4.12,0-1.12.19-2.3.56-3.53.38-1.23.99-2.39,1.83-3.46.84-1.08,1.96-1.96,3.36-2.63,1.4-.67,3.11-1.01,5.12-1.01,1.66,0,3.25.35,4.77,1.03,1.53.69,2.79,1.7,3.78,3.05.99,1.34,1.49,3.01,1.49,5,0,.7-.1,1.52-.29,2.45ZM86.94,139.9h-.34l-5.88-18.74h5.71l2.47,7.51,3.25-5.41-.72-2.1h5l2.5,7.85,3.97-7.85h5.71l-10.41,18.78h-.34l-4.28-11.85-6.64,11.81ZM108.26,178.37c-6.1,0-13.42-11.66-13.42-17.76s7.79-7.66,13.89-7.66,12.95.04,12.95,6.14-7.31,19.28-13.42,19.28Z"/>
      <path class="cls-1" d="M79.17,40.29l-.09.1-.09.12c-.59.69-1.16,1.14-2,1.41-.22.08-.45.14-.71.19-.01-.01-.01,0-.02,0-.99.19-2.3.23-4.21.19-1.79-.04-5.38-.87-8.13-2.93-1.01-.74-1.9-1.65-2.54-2.75-.18-.3-.34-.61-.48-.93-2.45-5.72-5.45-9.46-8.1-12.76-.08-.11-.17-.21-.25-.32.11.02.22.03.32.04,4.54.65,9.74,1.52,13.96,3.12,5.71,2.18,10.89,6.73,13.58,11.92.05.08.09.16.13.24.19.37-.11.88-1.37,2.36Z"/>
      <path class="cls-1" d="M123.1,79.21s-.09-.07-.13-.1c-3.41-2.63-7.54-5.91-11.53-9.09-.94-.75-1.86-1.48-2.75-2.19.68-1.61,1.49-3.46,2.35-5.25,1.21.93,2.42,1.84,3.64,2.75,1.6,1.2,3.21,2.41,4.8,3.65.54.42,1.08.83,1.62,1.25.42,3.11,1.09,6.12,2,8.98Z"/>
      <path class="cls-1" d="M166.48,105.31h0c-.23-.1-.47-.2-.71-.29.24.09.48.18.71.29Z"/>
      <path class="cls-2" d="M165.77,105.02c.24.09.48.19.71.3h0c-.23-.12-.47-.21-.71-.3Z"/>
      <path class="cls-1" d="M106.96,59.46c-.05.14-.11.3-.19.47-.76,1.55-1.47,3.13-2.1,4.6-.26-.22-.51-.44-.77-.65-5.22-4.44-10.85-9.16-17.21-14.4-.88-.72-1.75-1.45-2.63-2.18-.73-.61-1.47-1.22-2.2-1.82.36-.55.73-1.1,1.12-1.66.22-.32.44-.64.67-.97l.07-.11c.73.51,1.45,1.01,2.17,1.51,6.34,4.41,12.28,8.64,17.7,12.56.77.56,1.55,1.17,2.32,1.8.35.28.7.57,1.05.85Z"/>
      <path class="cls-1" d="M109.75,25.19c-.31.06-.62.14-.94.26-.24.09-.47.2-.71.33-1.77,1.03-3.04.91-7.13-.65-2.45-.94-7.94-4.76-8.26-9.99-.37-6.22-1.93-10.75-3.31-14.76-.04-.12-.08-.25-.13-.38.1.05.2.1.29.15,3.96,2.09,8.52,4.99,12.21,7.76,5.21,3.91,5.79,7.38,6.48,11.41.3,1.81.62,3.68,1.38,5.57.04.1.08.2.12.3Z"/>
      <path class="cls-2" d="M165.77,105.02c.24.09.48.19.71.3h0c-.23-.12-.47-.21-.71-.3Z"/>
      <path class="cls-1" d="M122.99,44.68c-.09.26-.17.52-.24.79-.26.87-.5,1.8-.72,2.78-.18.79-.35,1.63-.5,2.5-.02.11-.04.21-.05.32-.07.38-.13.75-.18,1.12-.26-.44-.51-.88-.77-1.33-.65-1.11-1.3-2.23-1.97-3.37-.64-1.1-1.29-2.21-1.97-3.35-1.34-2.29-2.73-4.65-4.19-7.1-1.15-1.91-2.28-3.82-3.4-5.73.44-.3.92-.6,1.38-.9.18-.12.36-.23.53-.34.44-.29.86-.57,1.25-.84.17.24.35.49.52.73,3.51,4.93,6.96,9.86,10.31,14.72Z"/>
      <path class="cls-1" d="M161.54,63.45v.09h.07s-.04-.06-.07-.09Z"/>
      <path class="cls-1" d="M221.93,99.17c3.31-.22,5.15,1.15,5.15,1.15-.32-6.52-7.15-12.22-7.15-12.22,6.96-9.56,8.91-23.63,6.66-36.32-2.26-12.7-7.18-14.43-7.18-14.43,0,0-2.92-1.33-6.12.72-3.01,1.93-3.85,5.62-5.39,8.61-1.54,2.66-3.65,7.13-8.42,10.29-3.99,2.63-5.87,4.82-7.13,6.57-.02-.03-.02-.12,0-.21,0-.05.01-.1.02-.15.52-3.03-2.82-9.71-9.37-11.84.33,1.98,1.02,4.46-.09,7.23-.36-3.46-2.67-8.56-9.42-11.73-.34,2.79,2.9,8.01-.5,10.39.98-1.77-1.54-5.69-3.9-6.61-.53,4.23-4.6,7.4-6.53,10.22-.62.9-1.02,1.76-1.02,2.61.03.03.05.06.07.09h-.07v-.09c-.78-1.08-1.81-2.33-3.42-3.74-.98-.85-2.16-1.77-3.64-2.74-4.77-3.16-6.88-7.63-8.42-10.29-1.54-2.99-2.38-6.68-5.39-8.61-3.2-2.05-6.12-.72-6.12-.72,0,0-2.98,1.05-5.37,7.5-.22.59-.43,1.22-.64,1.9-.1.37-.21.75-.31,1.14-.15.52-.28,1.07-.41,1.64s-.25,1.16-.36,1.78c-.03.15-.06.31-.09.47-.03.19-.07.38-.1.57-.04.22-.07.45-.11.67h0c-.05.37-.11.73-.16,1.1-.13,1.02-.24,2.04-.33,3.07-.02.31-.05.62-.06.93-.09,1.25-.13,2.51-.13,3.76,0,.94.02,1.88.07,2.81v.02c.06,1.22.16,2.44.31,3.65.07.71.17,1.41.29,2.11.07.49.15.98.25,1.46.24,1.3.53,2.57.88,3.82,1.05,3.88,2.6,7.53,4.66,10.74.34.55.71,1.09,1.09,1.61,0,0-.56.46-1.37,1.28-.49.5-1.07,1.13-1.68,1.87-1.86,2.28-3.93,5.55-4.1,9.07,0,0,1.84-1.37,5.15-1.15,0,0-15.06,9.18-8.98,25.61,0,0,1.51-3.08,6.43-3.76,0,0-6.74,9.42.71,19.43,0,0,.6-4.98,8.35-3.91,7.76,1.06,15.25,9.38,17.25,26.76.64,5.56-.36,10.3,1.45,15.72,0,0,.98,4.1,4.76,7.49,2.16,1.94,5.24,3.65,9.58,4.22,2.29.3,2.76-.27,5.4-.36,2.64.09,3.11.66,5.4.36,11.93-1.57,14.34-11.71,14.34-11.71,1.81-5.42.81-10.16,1.45-15.72,2-17.38,9.49-25.7,17.25-26.76,7.75-1.07,8.35,3.91,8.35,3.91,7.45-10.01.71-19.43.71-19.43,4.92.68,6.43,3.76,6.43,3.76,6.08-16.43-8.98-25.61-8.98-25.61ZM141.7,81.88c-.66-.47-1.27-.97-1.84-1.5-.21-.19-.41-.38-.61-.58-.41-.41-.8-.84-1.17-1.28t-.01-.02l-.02-.02c-.8-.97-1.49-2-2.05-3.07-.1-.19-.19-.37-.28-.56h0s0-.04-.02-.05c0-.01,0-.02-.02-.03h0c-.13-.3-.26-.59-.38-.89-.12-.3-.23-.6-.34-.9-.1-.27-.18-.54-.26-.81-.29-.95-.48-1.92-.6-2.9-.03-.18-.05-.36-.06-.55-.01-.11-.02-.22-.02-.33-.02-.17-.03-.33-.03-.5-.02-.29-.03-.57-.03-.86,0-.33.01-.67.03-1.01,0-.03,0-.07,0-.11.01-.26.03-.53.06-.79v-.02s0-.08,0-.12c.01-.05.01-.1.02-.15,0-.02,0-.05,0-.07.02-.19.05-.39.08-.58.03-.22.06-.44.1-.65-.14,4.63,1.31,7.22,3.9,8.92.32.21.72-.1.62-.47-.32-1.12-.42-2.05-.38-2.86v-.06c.02-.26.05-.5.08-.74.02-.12.04-.23.07-.34.02-.12.05-.23.08-.34.04-.16.09-.32.14-.47.04-.13.08-.25.12-.37.12-.33.25-.64.38-.96.11-.27.22-.54.32-.81.1-.26.19-.52.27-.79.08-.24.17-.48.24-.71.08-.23.15-.47.21-.7,0,0,.01-.02.01-.03,0-.03.02-.05.02-.08,0-.01.01-.02.01-.03.03-.13.06-.27.09-.39.04-.18.08-.36.1-.54.02-.11.03-.22.04-.32.02-.1.03-.21.03-.32.02-.25.02-.51.01-.76,0-.1-.01-.2-.02-.31-.01-.11-.02-.21-.03-.32-.01-.03-.01-.05-.01-.07-.04-.25-.09-.51-.16-.77-.04-.16-.09-.32-.14-.48-.05-.16-.1-.33-.17-.49-.07-.2-.16-.4-.25-.61-.07-.14-.14-.29-.21-.44-.18-.36-.39-.73-.63-1.13-.12-.2-.25-.4-.39-.61-.04-.06-.08-.13-.13-.2-.04-.05-.54-.77-.72-1-.13-.17-.27-.35-.41-.53-.42-.55-.9-1.12-1.43-1.73-3.34-3.8-2.31-6.75-1.03-7.51,3.67-1.99,7.51,4.34,8.79,7.22.1.22.19.45.28.68.2.48.38.97.53,1.5.06.19.11.38.16.58.03.14.07.28.1.43h0c.05.2.09.39.12.58.03.19.07.39.09.6.03.24.06.49.08.74.02.21.04.43.04.66.03.58.03,1.18-.02,1.82-.01.21-.03.42-.06.64-.02.21-.05.43-.08.66-.03.22-.07.45-.11.68-.05.29-.11.59-.18.9-.03.17-.07.35-.12.53-.05.25-.12.5-.19.76-.29,1.06-.48,2.1-.58,3.11-.02.17-.04.34-.05.51-.04.43-.05.85-.06,1.27v.27c0,.33.01.66.04.98,0,.06,0,.12.01.17,0,.36.05.71.09,1.06.06.47.13.92.22,1.37,0,.03,0,.07.02.1.04.24.1.48.15.71.06.24.12.47.18.7.06.23.13.46.2.68.2.65.43,1.28.68,1.89.12.3.25.6.39.89.12.26.24.52.36.77.02.03.04.06.05.09.14.29.29.56.44.83.03.06.07.12.1.18.2.36.41.71.62,1.05.1.17.21.34.31.5.21.33.42.64.64.95.1.15.21.3.31.44.21.3.42.58.63.85.82,1.08,1.59,1.96,2.17,2.64.3.35-.03.87-.48.76-.71-.17-1.4-.36-2.07-.58-.2-.06-.4-.13-.6-.2-.29-.1-.58-.2-.86-.31-.25-.09-.49-.19-.73-.29-.13-.05-.26-.11-.38-.16-.13-.05-.26-.11-.38-.17-.18-.08-.36-.16-.54-.25-.18-.08-.35-.17-.52-.26-.13-.07-.26-.13-.39-.2-.13-.06-.25-.13-.37-.2-.31-.17-.61-.35-.91-.53-.02-.01-.04-.03-.06-.04-.25-.15-.5-.31-.74-.48-.18-.11-.35-.24-.52-.36ZM144.53,105.09c-.15.05-.3.11-.45.16-.15.05-.29.11-.43.16-.19.07-.38.14-.55.22-.2.08-.39.16-.57.25.48-.28.95-.56,1.41-.82.16-.1.32-.19.48-.28.17-.09.33-.18.48-.27.99-.56,1.92-1.06,2.79-1.5.16-.09.32-.17.47-.24.75-.38,1.45-.72,2.11-1.01.06-.03.12-.06.17-.08.85-.38,1.64-.71,2.37-.97.07-.04.15-.07.22-.08.2-.07.4-.15.6-.21.16-.06.33-.12.49-.16.03-.01.05-.02.08-.03.15-.05.3-.1.45-.14.03-.01.07-.02.1-.03.25-.07.49-.14.72-.2.62-.15,1.2-.27,1.75-.35.13-.03.26-.04.39-.06.26-.03.51-.06.76-.08.24-.03.48-.04.72-.05.32-.01.62-.02.92-.02.49,0,.96.02,1.4.05h.01c.29.03.58.06.86.1.28.04.55.08.81.14.16.03.31.06.46.1.16.03.3.07.45.11.29.08.57.17.83.27.14.05.27.09.4.15.12.05.25.1.37.16.25.11.48.23.71.36.14.08.28.16.41.25.13.08.26.16.38.25,0,0,.01,0,.01.01.1.07.2.14.3.23.03.02.07.05.1.08.1.07.2.16.3.25.08.07.16.14.24.22.13.12.25.25.37.38.04.05.08.09.12.14.12.13.23.27.33.41.11.14.2.28.29.42.06.09.12.17.17.26,0,.02.03.05.04.07.07.11.13.22.18.34,0,.03.03.05.04.08.08.16.16.33.23.49.05.12.09.23.13.35.02.03.03.07.04.1.04.12.08.24.11.35.04.12.07.23.09.34.03.12.05.23.07.34.03.12.05.23.06.34.02.11.03.22.04.33h0c.02.23.03.45.03.65,0,.21,0,.42-.03.61-.17-.2-.35-.39-.55-.57-.03-.03-.06-.06-.1-.09-.14-.14-.29-.27-.45-.39t-.02-.01c-.1-.08-.2-.16-.3-.23-.11-.09-.22-.17-.33-.24-.11-.08-.22-.16-.34-.23-.15-.1-.3-.19-.45-.27-.11-.07-.23-.14-.36-.2-.12-.07-.24-.13-.36-.19-.04-.02-.07-.04-.11-.06-.17-.08-.34-.16-.51-.23-.23-.11-.47-.21-.71-.3-.24-.1-.49-.19-.74-.27-.26-.09-.51-.17-.77-.24-.26-.08-.53-.15-.79-.21-.19-.06-.38-.1-.57-.14h-.01c-.25-.06-.51-.12-.77-.17-.61-.11-1.23-.21-1.86-.29-.19-.02-.39-.04-.58-.06-.39-.04-.78-.08-1.18-.1-.39-.03-.79-.05-1.19-.06-.46-.02-.92-.03-1.39-.03-.4,0-.81,0-1.21.02-.62.02-1.23.05-1.83.1-.36.02-.72.05-1.07.09-.32.03-.64.06-.96.11-.25.02-.49.05-.73.09-.33.04-.66.09-.99.14h-.01s-.07.02-.1.02c-.5.09-1,.18-1.47.28-.48.1-.94.2-1.38.32-.2.05-.4.1-.59.16-.03,0-.06.01-.09.02-.13.04-.27.08-.4.12-.19.06-.38.11-.56.17ZM146.77,114.85c-1.05-.18-1.21-.38-1.33-.54-.18-.26-.27-.57.02-1.05,1.23-2.07,5.99-2.79,8.34-2.16.07.02.14.04.21.07.17.05.34.12.48.19,0,0,.01,0,.01.01.04.02.08.04.12.07.08.05.16.11.22.17.04.03.08.07.11.11.03.04.06.08.09.12.03.06.06.12.07.18.02.06.03.12.03.19,0,.12-.03.25-.09.39-.05.12-.14.25-.25.39-.7.85-1.87,4.17.22,6.19,1.09,1.06,3.21,1.69,5.01,1.2.07-.01.14-.03.21-.06.16-.05.32-.11.47-.18.09-.04.18-.08.26-.13.04-.02.07-.04.11-.06.64-.38,1.19-.94,1.56-1.75.04-.1.08-.19.11-.29.04-.1.07-.21.09-.31.02-.07.03-.13.05-.2.02-.11.03-.22.04-.33.01-.12.02-.23.02-.34,0-.67-.15-1.21-.23-1.38-.05-.11-.1-.25-.14-.4-.01-.05-.03-.11-.04-.16-.01-.06-.01-.11-.02-.17,0-.11,0-.22,0-.32.01-.06.02-.11.04-.16.02-.05.04-.1.07-.14.04-.06.09-.1.15-.14.05-.04.12-.06.2-.08.03-.01.07-.02.12-.02.04-.01.09-.01.14-.01.41,0,1.03.17,1.95.63.16.08.31.17.46.27.1.05.2.12.29.19.1.06.19.13.28.21.11.08.21.16.31.25.04.04.09.08.13.12h0s.04.04.06.06c.07.06.15.14.22.21.08.07.15.15.22.22.14.14.27.29.39.44l.03.03c.17.21.34.43.5.65.14.2.27.4.4.6.14.22.27.45.39.68.1.19.2.39.28.58.1.22.19.43.26.64.07.17.12.33.17.5.02.04.03.08.04.12.01.04.02.08.03.12.05.17.09.34.12.5.02.12.04.23.06.34v.06c0,.06.02.12.02.18.01.13.02.25.02.37,0,.08,0,.16-.02.24t0,.02c0,.06-.03.13-.05.19-.01.04-.03.09-.06.13-.01.04-.03.07-.06.1-.04.06-.09.11-.14.16-.02.02-.05.04-.07.05-.04.03-.09.05-.13.07-.04.02-.08.04-.12.05-4.94,1.3-18.18.83-22.44-7.88ZM161.92,129.88c-.27-.39.16-.88.59-.65,2.2,1.17,4.1,1.38,5.31,1.33.5-.03.89.38.89.87,0,3.47-.94,7.25-2.03,10.47-.32.94-1.73.67-1.66-.32.41-5.92-1.45-9.4-3.1-11.7ZM189.6,174.03s-.17,2.78-4.2,3.13c-.81.07-2.03-.25-3.17-.24-.15,0-.3.01-.45.02-.07,0-.15.02-.23.03s-.16.03-.23.04c-.09.02-.17.04-.26.07-.08.02-.17.05-.25.09-.06.02-.12.05-.18.09-.14.07-.26.15-.38.26-.05.03-.09.07-.13.12-.08.07-.15.16-.21.25-.04.05-.08.11-.11.17-.06.08-.11.18-.15.28-.02.05-.04.09-.05.13-.05.11-.09.22-.12.33-.01.03-.02.05-.03.08,0,.04-.02.09-.03.14-.01.04-.03.08-.03.13-.03.1-.04.21-.05.31,0,.11-.02.21-.02.31,0,.11.01.21.02.31h0c.02.11.04.21.07.3.06.2.14.38.24.54s.23.31.37.44c.07.07.14.13.22.19.07.06.15.11.23.16.54.34,1.37,1.01,3.21-.08,1.22-.73,1.7-2.98,3.53-3.01.15,1.8-.15,6.55-10.23,6.81-.84-.02-1.62-.08-2.33-.16-.17,0-.33-.03-.49-.06-.25-.03-.49-.07-.72-.11-.16-.03-.32-.06-.48-.09-.06-.01-.12-.02-.17-.03-.01-.01-.02-.01-.03-.01-.05-.01-.09-.02-.14-.03-.4-.09-.77-.19-1.12-.3-.01,0-.02,0-.03,0-.12-.04-.24-.08-.35-.12-.11-.04-.21-.08-.32-.12-.18-.07-.35-.14-.52-.22-.15-.06-.3-.13-.43-.21-.02,0-.03,0-.05-.02-.73-.39-1.3-.83-1.73-1.3-.11-.11-.21-.23-.3-.35-.18-.23-.34-.47-.46-.71-.06-.12-.12-.24-.17-.36-.04-.08-.07-.17-.1-.25-.03-.08-.06-.17-.08-.25-.06-.16-.09-.31-.12-.46-.02-.1-.04-.2-.05-.3-.02-.1-.03-.2-.04-.3-.01-.08-.01-.17-.01-.25-.02-.3,0-.57.01-.79,1.83.03,2.31,2.28,3.53,3.01,1.84,1.09,2.67.42,3.21.08.93-.58,1.58-1.66.82-3.37-1.06-2.36-4.18-1.04-5.75-1.18-4.03-.35-4.2-3.13-4.2-3.13-.07-.49-.11-2.7,2.25-3.67.43-.18,1.93-.28,4.56.11,2.16.33,2.74.5,5.81.54,3.07-.04,3.65-.21,5.81-.54.17-.02.33-.05.49-.07.31-.04.61-.08.88-.1.14-.01.28-.03.41-.04.13-.01.26-.02.38-.03.18-.01.35-.02.51-.02.16,0,.31,0,.45,0s.28,0,.4,0c.1,0,.2.01.28.02.14.01.27.02.37.04.07.01.13.02.18.03.09.02.16.04.21.06,2.36.97,2.32,3.18,2.25,3.67ZM192.04,129.88c-1.65,2.3-3.51,5.78-3.1,11.7.07.99-1.34,1.26-1.66.32-1.09-3.22-2.03-7-2.03-10.47,0-.49.39-.9.89-.87,1.21.05,3.11-.16,5.31-1.33.43-.23.86.26.59.65ZM208.52,114.31c-.12.16-.28.36-1.33.54-.07.15-.14.29-.22.42-.07.13-.14.26-.22.39,0,.01-.01.01-.01.02-.06.11-.13.23-.21.34-.03.05-.06.1-.09.14-.08.13-.17.26-.25.38-.15.21-.31.41-.47.6-.11.15-.23.29-.36.43-.43.49-.9.93-1.39,1.35-.21.17-.43.34-.65.51-.3.22-.6.42-.91.62-.25.15-.5.3-.76.45-.03.02-.06.03-.08.04-.28.16-.56.3-.85.44-.24.12-.48.23-.71.32-.15.07-.31.14-.46.19h0c-.23.1-.45.19-.68.27-.29.1-.59.2-.89.3-.29.09-.59.18-.89.26-.05.02-.1.03-.15.04-.32.09-.65.17-.97.24-.05.01-.09.02-.13.03-.28.06-.57.12-.85.17-.32.06-.65.11-.97.16-.09.01-.17.03-.26.04-.34.05-.67.09-1,.12-.04,0-.08.01-.12.01h-.01c-.37.04-.73.07-1.1.09l-.72.03c-.91.03-1.77.02-2.58-.03-.36-.01-.72-.04-1.05-.08-.04,0-.09,0-.13,0-.05-.01-.09-.01-.14-.02-.2-.02-.39-.05-.58-.07-.19-.03-.37-.06-.55-.09-.37-.07-.71-.14-1.02-.22-.44-.12-.66-.55-.66-1.01,0-2.39,2.15-6.07,4.68-7.34,3.29-1.64,2.75.35,2.47.97-.13.28-.48,1.65.08,2.85.1.21.21.41.33.59.08.12.17.23.26.34.11.13.23.25.35.37.13.11.25.21.39.3.11.08.22.15.34.21.09.05.17.09.26.13.09.04.17.08.27.11.02.01.03.01.05.02t.02.01s.03.01.05.01c.05.02.11.04.16.05.06.02.11.04.17.05.15.04.31.08.47.1.09.01.18.02.26.03.08.01.16.02.24.02,1.53.08,3.11-.5,4-1.36,2.09-2.02.92-5.34.22-6.19-.79-.97-.11-1.59,1-1.89,2.35-.63,7.11.09,8.34,2.16.29.48.2.79.02,1.05ZM197.39,103.46h-.18c-.14,0-.29,0-.44.01h-.05c-.06,0-.12,0-.18.01-.43.01-.85.04-1.27.07-.05,0-.1.01-.15.01h-.05c-.43.04-.86.08-1.28.13-.64.08-1.28.17-1.9.29-.08.02-.17.04-.25.05-.3.06-.6.13-.89.2-.27.06-.53.13-.79.2-.25.07-.5.15-.75.23-.28.09-.57.19-.84.29-.2.07-.39.15-.58.23h-.01s-.03.01-.05.02c-.21.09-.41.18-.6.27-.02.01-.03.01-.03.01-.28.13-.54.27-.8.42-.25.13-.48.28-.71.43-.03.01-.05.03-.07.04-.18.12-.36.25-.53.39-.12.09-.25.19-.36.29-.18.14-.36.29-.52.45-.18.17-.35.35-.51.53-.35-3.46,2.23-9.13,11.27-8.71.33.02.67.04,1.02.08.17.02.34.04.51.06.19.03.38.06.57.09.51.08,1.04.19,1.6.34.03.01.06.01.09.02.21.05.43.11.65.18.29.08.59.17.89.28.31.09.62.21.94.33.16.06.33.12.5.19.17.06.34.13.51.2.17.06.35.14.53.22.35.15.73.31,1.11.49.19.08.38.17.58.27.2.09.4.19.61.29.2.1.41.2.62.31.42.2.86.43,1.32.67.73.38,1.51.81,2.33,1.28.29.16.58.32.88.5.42.24.85.49,1.3.76-2.99-1.44-8.53-2.52-14.04-2.42ZM203.19,85.91c-.45.11-.78-.41-.48-.76,2.79-3.25,9.82-11.32,6.92-22.01-1.5-5.52-.6-8.95.64-11.76,1.28-2.88,5.12-9.21,8.79-7.22,1.28.76,2.31,3.71-1.03,7.51-5.6,6.41-5.16,9.16-3.94,12.57.7,2.34,2.16,3.92,1.08,7.74-.1.37.3.68.62.47,2.59-1.7,4.04-4.29,3.9-8.92,1.75,9.6-3.67,19.27-16.5,22.38Z"/>
    </g>
  </g>
</svg>